# xmcd CD database file
#
# Track frame offsets:
#	150
#	18865
#	37436
#	49305
#	60205
#	75582
#	86485
#	99971
#	110476
#	125638
#	138692
#	153309
#
# Disc length: 2213 seconds
#
# Revision: 0
# Processed by: cddbd v1.4PL0 Copyright (c) Steve Scherf et al.
# Submitted via: CDex 1.40Beta8
#
DISCID=9908a30c
DTITLE=Kenny Rogers - Greatest Hits
DYEAR=2001
DGENRE=Country
TTITLE0=The King Of Oak Streat
TTITLE1=I Beleive In Music
TTITLE2=A Poem For My Little Lady
TTITLE3=Always Leaving Always Gone
TTITLE4=For The Good Times
TTITLE5=She Event Woke Me Up To say Goodbye
TTITLE6=Ruby Don't Take Your Love To Town 
TTITLE7=Ticket To Nowhere
TTITLE8=Tell It All Brother
TTITLE9=Sleep Comes Easy
TTITLE10=Church Without a Name
TTITLE11=Run Throught Your Mind
EXTD=YEAR: 2001 ID3G: 2
EXTT0=
EXTT1=
EXTT2=
EXTT3=
EXTT4=
EXTT5=
EXTT6=
EXTT7=
EXTT8=
EXTT9=
EXTT10=
EXTT11=
PLAYORDER=
